<svg xmlns="http://www.w3.org/2000/svg" width="980" height="560" viewBox="0 0 980 560">
<rect width="100%" height="100%" fill="white"/>
<text x="24" y="30" font-size="18" font-weight="600">第11講 PART1 講義問題 1(1)｜箱线图与三个直方图</text><text x="55" y="84" font-size="14">箱线图</text>
<line x1="250" y1="78" x2="900" y2="78" stroke="#bbb" stroke-width="1"/><line x1="250" y1="73" x2="250" y2="83" stroke="#888"/>
<text x="242" y="102" font-size="11">0</text><line x1="358.3333333333333" y1="73" x2="358.3333333333333" y2="83" stroke="#888"/>
<text x="350.3333333333333" y="102" font-size="11">5</text><line x1="466.66666666666663" y1="73" x2="466.66666666666663" y2="83" stroke="#888"/>
<text x="458.66666666666663" y="102" font-size="11">10</text><line x1="575" y1="73" x2="575" y2="83" stroke="#888"/>
<text x="567" y="102" font-size="11">15</text><line x1="683.3333333333333" y1="73" x2="683.3333333333333" y2="83" stroke="#888"/>
<text x="675.3333333333333" y="102" font-size="11">20</text><line x1="791.6666666666667" y1="73" x2="791.6666666666667" y2="83" stroke="#888"/>
<text x="783.6666666666667" y="102" font-size="11">25</text><line x1="900" y1="73" x2="900" y2="83" stroke="#888"/>
<text x="892" y="102" font-size="11">30</text><line x1="315" y1="78" x2="510" y2="78" stroke="#111" stroke-width="2"/>
<line x1="726.6666666666666" y1="78" x2="835" y2="78" stroke="#111" stroke-width="2"/>
<line x1="315" y1="66" x2="315" y2="90" stroke="#111" stroke-width="2"/>
<line x1="835" y1="66" x2="835" y2="90" stroke="#111" stroke-width="2"/>
<rect x="510" y="58" width="216.66666666666663" height="40" fill="white" stroke="#111" stroke-width="2"/>
<line x1="618.3333333333333" y1="58" x2="618.3333333333333" y2="98" stroke="#111" stroke-width="2"/><text x="55" y="156" font-size="16" font-weight="600">①</text>
<line x1="55" y1="315" x2="325" y2="315" stroke="#111" stroke-width="1.4"/>
<line x1="55" y1="170" x2="55" y2="315" stroke="#111" stroke-width="1.4"/><line x1="51" y1="315" x2="325" y2="315" stroke="#ddd" stroke-width="1"/>
<text x="33" y="319" font-size="10">0</text><line x1="51" y1="286" x2="325" y2="286" stroke="#ddd" stroke-width="1"/>
<text x="33" y="290" font-size="10">2</text><line x1="51" y1="257" x2="325" y2="257" stroke="#ddd" stroke-width="1"/>
<text x="33" y="261" font-size="10">4</text><line x1="51" y1="228" x2="325" y2="228" stroke="#ddd" stroke-width="1"/>
<text x="33" y="232" font-size="10">6</text><line x1="51" y1="199" x2="325" y2="199" stroke="#ddd" stroke-width="1"/>
<text x="33" y="203" font-size="10">8</text><line x1="51" y1="170" x2="325" y2="170" stroke="#ddd" stroke-width="1"/>
<text x="33" y="174" font-size="10">10</text><rect x="56" y="300.5" width="43" height="14.5" fill="#d9d9d9" stroke="#111" stroke-width="1"/><rect x="101" y="286" width="43" height="29" fill="#d9d9d9" stroke="#111" stroke-width="1"/><rect x="146" y="257" width="43" height="58" fill="#d9d9d9" stroke="#111" stroke-width="1"/><rect x="191" y="184.5" width="43" height="130.5" fill="#d9d9d9" stroke="#111" stroke-width="1"/><rect x="236" y="199" width="43" height="116" fill="#d9d9d9" stroke="#111" stroke-width="1"/><rect x="281" y="257" width="43" height="58" fill="#d9d9d9" stroke="#111" stroke-width="1"/><text x="50" y="333" font-size="10">0</text><text x="95" y="333" font-size="10">5</text><text x="140" y="333" font-size="10">10</text><text x="185" y="333" font-size="10">15</text><text x="230" y="333" font-size="10">20</text><text x="275" y="333" font-size="10">25</text><text x="320" y="333" font-size="10">30</text><text x="355" y="156" font-size="16" font-weight="600">②</text>
<line x1="355" y1="315" x2="625" y2="315" stroke="#111" stroke-width="1.4"/>
<line x1="355" y1="170" x2="355" y2="315" stroke="#111" stroke-width="1.4"/><line x1="351" y1="315" x2="625" y2="315" stroke="#ddd" stroke-width="1"/>
<text x="333" y="319" font-size="10">0</text><line x1="351" y1="286" x2="625" y2="286" stroke="#ddd" stroke-width="1"/>
<text x="333" y="290" font-size="10">2</text><line x1="351" y1="257" x2="625" y2="257" stroke="#ddd" stroke-width="1"/>
<text x="333" y="261" font-size="10">4</text><line x1="351" y1="228" x2="625" y2="228" stroke="#ddd" stroke-width="1"/>
<text x="333" y="232" font-size="10">6</text><line x1="351" y1="199" x2="625" y2="199" stroke="#ddd" stroke-width="1"/>
<text x="333" y="203" font-size="10">8</text><line x1="351" y1="170" x2="625" y2="170" stroke="#ddd" stroke-width="1"/>
<text x="333" y="174" font-size="10">10</text><rect x="356" y="242.5" width="43" height="72.5" fill="#d9d9d9" stroke="#111" stroke-width="1"/><rect x="401" y="199" width="43" height="116" fill="#d9d9d9" stroke="#111" stroke-width="1"/><rect x="446" y="257" width="43" height="58" fill="#d9d9d9" stroke="#111" stroke-width="1"/><rect x="491" y="271.5" width="43" height="43.5" fill="#d9d9d9" stroke="#111" stroke-width="1"/><rect x="536" y="286" width="43" height="29" fill="#d9d9d9" stroke="#111" stroke-width="1"/><rect x="581" y="300.5" width="43" height="14.5" fill="#d9d9d9" stroke="#111" stroke-width="1"/><text x="350" y="333" font-size="10">0</text><text x="395" y="333" font-size="10">5</text><text x="440" y="333" font-size="10">10</text><text x="485" y="333" font-size="10">15</text><text x="530" y="333" font-size="10">20</text><text x="575" y="333" font-size="10">25</text><text x="620" y="333" font-size="10">30</text><text x="655" y="156" font-size="16" font-weight="600">③</text>
<line x1="655" y1="315" x2="925" y2="315" stroke="#111" stroke-width="1.4"/>
<line x1="655" y1="170" x2="655" y2="315" stroke="#111" stroke-width="1.4"/><line x1="651" y1="315" x2="925" y2="315" stroke="#ddd" stroke-width="1"/>
<text x="633" y="319" font-size="10">0</text><line x1="651" y1="286" x2="925" y2="286" stroke="#ddd" stroke-width="1"/>
<text x="633" y="290" font-size="10">2</text><line x1="651" y1="257" x2="925" y2="257" stroke="#ddd" stroke-width="1"/>
<text x="633" y="261" font-size="10">4</text><line x1="651" y1="228" x2="925" y2="228" stroke="#ddd" stroke-width="1"/>
<text x="633" y="232" font-size="10">6</text><line x1="651" y1="199" x2="925" y2="199" stroke="#ddd" stroke-width="1"/>
<text x="633" y="203" font-size="10">8</text><line x1="651" y1="170" x2="925" y2="170" stroke="#ddd" stroke-width="1"/>
<text x="633" y="174" font-size="10">10</text><rect x="656" y="257" width="43" height="58" fill="#d9d9d9" stroke="#111" stroke-width="1"/><rect x="701" y="286" width="43" height="29" fill="#d9d9d9" stroke="#111" stroke-width="1"/><rect x="746" y="286" width="43" height="29" fill="#d9d9d9" stroke="#111" stroke-width="1"/><rect x="791" y="199" width="43" height="116" fill="#d9d9d9" stroke="#111" stroke-width="1"/><rect x="836" y="213.5" width="43" height="101.5" fill="#d9d9d9" stroke="#111" stroke-width="1"/><rect x="881" y="228" width="43" height="87" fill="#d9d9d9" stroke="#111" stroke-width="1"/><text x="650" y="333" font-size="10">0</text><text x="695" y="333" font-size="10">5</text><text x="740" y="333" font-size="10">10</text><text x="785" y="333" font-size="10">15</text><text x="830" y="333" font-size="10">20</text><text x="875" y="333" font-size="10">25</text><text x="920" y="333" font-size="10">30</text><text x="55" y="525" font-size="12">各阶级区间均包含左端点、不包含右端点。图按教材的数据规模与四分位位置重绘。</text></svg>