<?xml version="1.0" encoding="UTF-8" standalone="no"?>
<svg
   width="391.12pt"
   height="162.75pt"
   viewBox="0 0 391.12 162.75"
   version="1.1"
   id="svg331"
   sodipodi:docname="abs-transform.pdf"
   xmlns:inkscape="http://www.inkscape.org/namespaces/inkscape"
   xmlns:sodipodi="http://sodipodi.sourceforge.net/DTD/sodipodi-0.dtd"
   xmlns:xlink="http://www.w3.org/1999/xlink"
   xmlns="http://www.w3.org/2000/svg"
   xmlns:svg="http://www.w3.org/2000/svg">
  <sodipodi:namedview
     id="namedview333"
     pagecolor="#ffffff"
     bordercolor="#000000"
     borderopacity="0.25"
     inkscape:showpageshadow="2"
     inkscape:pageopacity="0.0"
     inkscape:pagecheckerboard="0"
     inkscape:deskcolor="#d1d1d1"
     inkscape:document-units="pt" />
  <defs
     id="defs91">
    <g
       id="g86">
      <g
         id="glyph-0-0">
        <path
           d="M 6.5625 -2.296875 C 6.734375 -2.296875 6.921875 -2.296875 6.921875 -2.5 C 6.921875 -2.6875 6.734375 -2.6875 6.5625 -2.6875 L 1.171875 -2.6875 C 1 -2.6875 0.828125 -2.6875 0.828125 -2.5 C 0.828125 -2.296875 1 -2.296875 1.171875 -2.296875 Z M 6.5625 -2.296875 "
           id="path2" />
      </g>
      <g
         id="glyph-1-0">
        <path
           d="M 1.265625 -0.765625 L 2.328125 -1.796875 C 3.875 -3.171875 4.46875 -3.703125 4.46875 -4.703125 C 4.46875 -5.84375 3.578125 -6.640625 2.359375 -6.640625 C 1.234375 -6.640625 0.5 -5.71875 0.5 -4.828125 C 0.5 -4.28125 1 -4.28125 1.03125 -4.28125 C 1.203125 -4.28125 1.546875 -4.390625 1.546875 -4.8125 C 1.546875 -5.0625 1.359375 -5.328125 1.015625 -5.328125 C 0.9375 -5.328125 0.921875 -5.328125 0.890625 -5.3125 C 1.109375 -5.96875 1.65625 -6.328125 2.234375 -6.328125 C 3.140625 -6.328125 3.5625 -5.515625 3.5625 -4.703125 C 3.5625 -3.90625 3.078125 -3.125 2.515625 -2.5 L 0.609375 -0.375 C 0.5 -0.265625 0.5 -0.234375 0.5 0 L 4.203125 0 L 4.46875 -1.734375 L 4.234375 -1.734375 C 4.171875 -1.4375 4.109375 -1 4 -0.84375 C 3.9375 -0.765625 3.28125 -0.765625 3.0625 -0.765625 Z M 1.265625 -0.765625 "
           id="path5" />
      </g>
      <g
         id="glyph-1-1">
        <path
           d="M 2.9375 -6.375 C 2.9375 -6.625 2.9375 -6.640625 2.703125 -6.640625 C 2.078125 -6 1.203125 -6 0.890625 -6 L 0.890625 -5.6875 C 1.09375 -5.6875 1.671875 -5.6875 2.1875 -5.953125 L 2.1875 -0.78125 C 2.1875 -0.421875 2.15625 -0.3125 1.265625 -0.3125 L 0.953125 -0.3125 L 0.953125 0 C 1.296875 -0.03125 2.15625 -0.03125 2.5625 -0.03125 C 2.953125 -0.03125 3.828125 -0.03125 4.171875 0 L 4.171875 -0.3125 L 3.859375 -0.3125 C 2.953125 -0.3125 2.9375 -0.421875 2.9375 -0.78125 Z M 2.9375 -6.375 "
           id="path8" />
      </g>
      <g
         id="glyph-2-0">
        <path
           d="M 2.90625 -2.078125 C 2.90625 -0.34375 2.0625 -0.078125 1.640625 -0.078125 C 1.484375 -0.078125 1.109375 -0.09375 0.921875 -0.3125 C 1.21875 -0.34375 1.234375 -0.578125 1.234375 -0.640625 C 1.234375 -0.8125 1.109375 -0.96875 0.90625 -0.96875 C 0.703125 -0.96875 0.578125 -0.828125 0.578125 -0.625 C 0.578125 -0.15625 0.96875 0.140625 1.640625 0.140625 C 2.640625 0.140625 3.578125 -0.796875 3.578125 -2.296875 C 3.578125 -4.015625 2.8125 -4.625 2 -4.625 C 1.765625 -4.625 1.296875 -4.59375 0.890625 -4.203125 C 0.65625 -3.96875 0.375 -3.703125 0.375 -3.078125 C 0.375 -2.1875 1.078125 -1.53125 1.890625 -1.53125 C 2.453125 -1.53125 2.75 -1.90625 2.90625 -2.21875 Z M 1.9375 -1.734375 C 1.65625 -1.734375 1.40625 -1.8125 1.203125 -2.140625 C 1.046875 -2.390625 1.046875 -2.6875 1.046875 -3.078125 C 1.046875 -3.484375 1.046875 -3.75 1.25 -4.03125 C 1.421875 -4.28125 1.640625 -4.421875 2 -4.421875 C 2.359375 -4.421875 2.578125 -4.203125 2.6875 -4.015625 C 2.875 -3.734375 2.890625 -3.234375 2.890625 -3 C 2.890625 -2.09375 2.375 -1.734375 1.9375 -1.734375 Z M 1.9375 -1.734375 "
           id="path11" />
      </g>
      <g
         id="glyph-2-1">
        <path
           d="M 3.6875 -1.140625 L 3.6875 -1.390625 L 2.90625 -1.390625 L 2.90625 -4.5 C 2.90625 -4.640625 2.90625 -4.703125 2.765625 -4.703125 C 2.671875 -4.703125 2.640625 -4.703125 2.578125 -4.59375 L 0.265625 -1.390625 L 0.265625 -1.140625 L 2.328125 -1.140625 L 2.328125 -0.578125 C 2.328125 -0.328125 2.328125 -0.25 1.75 -0.25 L 1.5625 -0.25 L 1.5625 0 C 1.921875 -0.015625 2.359375 -0.03125 2.609375 -0.03125 C 2.875 -0.03125 3.3125 -0.015625 3.671875 0 L 3.671875 -0.25 L 3.484375 -0.25 C 2.90625 -0.25 2.90625 -0.328125 2.90625 -0.578125 L 2.90625 -1.140625 Z M 2.375 -3.9375 L 2.375 -1.390625 L 0.53125 -1.390625 Z M 2.375 -3.9375 "
           id="path14" />
      </g>
      <g
         id="glyph-3-0">
        <path
           d="M 3.328125 -3.015625 C 3.390625 -3.265625 3.625 -4.1875 4.3125 -4.1875 C 4.359375 -4.1875 4.609375 -4.1875 4.8125 -4.0625 C 4.53125 -4 4.34375 -3.765625 4.34375 -3.515625 C 4.34375 -3.359375 4.453125 -3.171875 4.71875 -3.171875 C 4.9375 -3.171875 5.25 -3.34375 5.25 -3.75 C 5.25 -4.265625 4.671875 -4.40625 4.328125 -4.40625 C 3.75 -4.40625 3.40625 -3.875 3.28125 -3.65625 C 3.03125 -4.3125 2.5 -4.40625 2.203125 -4.40625 C 1.171875 -4.40625 0.59375 -3.125 0.59375 -2.875 C 0.59375 -2.765625 0.703125 -2.765625 0.71875 -2.765625 C 0.796875 -2.765625 0.828125 -2.796875 0.84375 -2.875 C 1.1875 -3.9375 1.84375 -4.1875 2.1875 -4.1875 C 2.375 -4.1875 2.71875 -4.09375 2.71875 -3.515625 C 2.71875 -3.203125 2.546875 -2.546875 2.1875 -1.140625 C 2.03125 -0.53125 1.671875 -0.109375 1.234375 -0.109375 C 1.171875 -0.109375 0.953125 -0.109375 0.734375 -0.234375 C 0.984375 -0.296875 1.203125 -0.5 1.203125 -0.78125 C 1.203125 -1.046875 0.984375 -1.125 0.84375 -1.125 C 0.53125 -1.125 0.296875 -0.875 0.296875 -0.546875 C 0.296875 -0.09375 0.78125 0.109375 1.21875 0.109375 C 1.890625 0.109375 2.25 -0.59375 2.265625 -0.640625 C 2.390625 -0.28125 2.75 0.109375 3.34375 0.109375 C 4.375 0.109375 4.9375 -1.171875 4.9375 -1.421875 C 4.9375 -1.53125 4.859375 -1.53125 4.828125 -1.53125 C 4.734375 -1.53125 4.71875 -1.484375 4.6875 -1.421875 C 4.359375 -0.34375 3.6875 -0.109375 3.375 -0.109375 C 2.984375 -0.109375 2.828125 -0.421875 2.828125 -0.765625 C 2.828125 -0.984375 2.875 -1.203125 2.984375 -1.640625 Z M 3.328125 -3.015625 "
           id="path17" />
      </g>
      <g
         id="glyph-3-1">
        <path
           d="M 4.84375 -3.796875 C 4.890625 -3.9375 4.890625 -3.953125 4.890625 -4.03125 C 4.890625 -4.203125 4.75 -4.296875 4.59375 -4.296875 C 4.5 -4.296875 4.34375 -4.234375 4.25 -4.09375 C 4.234375 -4.03125 4.140625 -3.734375 4.109375 -3.546875 C 4.03125 -3.296875 3.96875 -3.015625 3.90625 -2.75 L 3.453125 -0.953125 C 3.421875 -0.8125 2.984375 -0.109375 2.328125 -0.109375 C 1.828125 -0.109375 1.71875 -0.546875 1.71875 -0.921875 C 1.71875 -1.375 1.890625 -2 2.21875 -2.875 C 2.375 -3.28125 2.421875 -3.390625 2.421875 -3.59375 C 2.421875 -4.03125 2.109375 -4.40625 1.609375 -4.40625 C 0.65625 -4.40625 0.296875 -2.953125 0.296875 -2.875 C 0.296875 -2.765625 0.390625 -2.765625 0.40625 -2.765625 C 0.515625 -2.765625 0.515625 -2.796875 0.5625 -2.953125 C 0.84375 -3.890625 1.234375 -4.1875 1.578125 -4.1875 C 1.65625 -4.1875 1.828125 -4.1875 1.828125 -3.875 C 1.828125 -3.625 1.71875 -3.359375 1.65625 -3.171875 C 1.25 -2.109375 1.078125 -1.546875 1.078125 -1.078125 C 1.078125 -0.1875 1.703125 0.109375 2.296875 0.109375 C 2.6875 0.109375 3.015625 -0.0625 3.296875 -0.34375 C 3.171875 0.171875 3.046875 0.671875 2.65625 1.203125 C 2.390625 1.53125 2.015625 1.828125 1.5625 1.828125 C 1.421875 1.828125 0.96875 1.796875 0.796875 1.40625 C 0.953125 1.40625 1.09375 1.40625 1.21875 1.28125 C 1.328125 1.203125 1.421875 1.0625 1.421875 0.875 C 1.421875 0.5625 1.15625 0.53125 1.0625 0.53125 C 0.828125 0.53125 0.5 0.6875 0.5 1.171875 C 0.5 1.671875 0.9375 2.046875 1.5625 2.046875 C 2.578125 2.046875 3.609375 1.140625 3.890625 0.015625 Z M 4.84375 -3.796875 "
           id="path20" />
      </g>
      <g
         id="glyph-4-0">
        <path
           d="M 4.5 -3.453125 C 4.515625 -3.5 4.53125 -3.546875 4.53125 -3.609375 C 4.53125 -3.71875 4.453125 -3.859375 4.25 -3.859375 C 4.140625 -3.859375 3.96875 -3.796875 3.90625 -3.625 C 3.890625 -3.59375 3.796875 -3.21875 3.75 -3.015625 L 3.296875 -1.234375 C 3.234375 -0.96875 3.234375 -0.953125 3.203125 -0.875 C 3.203125 -0.828125 2.828125 -0.125 2.171875 -0.125 C 1.625 -0.125 1.625 -0.6875 1.625 -0.859375 C 1.625 -1.265625 1.734375 -1.703125 2.125 -2.703125 C 2.203125 -2.921875 2.25 -3.046875 2.25 -3.203125 C 2.25 -3.65625 1.921875 -3.96875 1.484375 -3.96875 C 0.625 -3.96875 0.265625 -2.6875 0.265625 -2.578125 C 0.265625 -2.5 0.328125 -2.46875 0.390625 -2.46875 C 0.484375 -2.46875 0.5 -2.53125 0.53125 -2.640625 C 0.71875 -3.3125 1.078125 -3.734375 1.453125 -3.734375 C 1.671875 -3.734375 1.671875 -3.5625 1.671875 -3.4375 C 1.671875 -3.296875 1.625 -3.125 1.546875 -2.921875 C 1.125 -1.796875 1.015625 -1.421875 1.015625 -1 C 1.015625 0 1.828125 0.09375 2.15625 0.09375 C 2.59375 0.09375 2.90625 -0.140625 3.0625 -0.296875 C 2.953125 0.15625 2.859375 0.5625 2.5 1.015625 C 2.234375 1.375 1.875 1.609375 1.484375 1.609375 C 1.234375 1.609375 0.9375 1.53125 0.8125 1.28125 C 1.28125 1.28125 1.34375 0.875 1.34375 0.796875 C 1.34375 0.59375 1.203125 0.46875 1 0.46875 C 0.796875 0.46875 0.5 0.640625 0.5 1.046875 C 0.5 1.515625 0.921875 1.84375 1.484375 1.84375 C 2.390625 1.84375 3.375 1.0625 3.625 0.015625 Z M 4.5 -3.453125 "
           id="path23" />
      </g>
      <g
         id="glyph-4-1">
        <path
           d="M 3.359375 -3.59375 L 4.15625 -3.59375 C 4.34375 -3.59375 4.4375 -3.59375 4.4375 -3.75 C 4.4375 -3.859375 4.34375 -3.859375 4.171875 -3.859375 L 3.40625 -3.859375 C 3.5 -4.40625 3.625 -5.140625 3.75 -5.625 C 3.828125 -5.96875 4.046875 -6.09375 4.21875 -6.09375 C 4.28125 -6.09375 4.484375 -6.078125 4.640625 -5.96875 C 4.453125 -5.9375 4.203125 -5.78125 4.203125 -5.484375 C 4.203125 -5.25 4.375 -5.15625 4.53125 -5.15625 C 4.78125 -5.15625 5.03125 -5.359375 5.03125 -5.6875 C 5.03125 -6.09375 4.640625 -6.328125 4.21875 -6.328125 C 3.8125 -6.328125 3.40625 -6.03125 3.21875 -5.671875 C 3.015625 -5.28125 2.953125 -4.9375 2.765625 -3.859375 L 2.125 -3.859375 C 1.953125 -3.859375 1.84375 -3.859375 1.84375 -3.703125 C 1.84375 -3.59375 1.953125 -3.59375 2.109375 -3.59375 L 2.71875 -3.59375 C 2.46875 -2.28125 2.15625 -0.5 1.953125 0.4375 C 1.84375 0.9375 1.703125 1.609375 1.28125 1.609375 C 1.140625 1.609375 0.953125 1.5625 0.875 1.484375 C 1.09375 1.453125 1.3125 1.265625 1.3125 1 C 1.3125 0.765625 1.140625 0.671875 0.984375 0.671875 C 0.734375 0.671875 0.484375 0.875 0.484375 1.203125 C 0.484375 1.625 0.890625 1.84375 1.28125 1.84375 C 2.1875 1.84375 2.609375 0.34375 2.75 -0.421875 Z M 3.359375 -3.59375 "
           id="path26" />
      </g>
      <g
         id="glyph-4-2">
        <path
           d="M 4.40625 -3.625 C 4.078125 -3.5625 3.984375 -3.28125 3.984375 -3.140625 C 3.984375 -2.96875 4.109375 -2.8125 4.328125 -2.8125 C 4.578125 -2.8125 4.828125 -3.03125 4.828125 -3.34375 C 4.828125 -3.765625 4.375 -3.96875 3.953125 -3.96875 C 3.421875 -3.96875 3.109375 -3.484375 3 -3.296875 C 2.828125 -3.734375 2.4375 -3.96875 2 -3.96875 C 1.046875 -3.96875 0.515625 -2.8125 0.515625 -2.578125 C 0.515625 -2.5 0.578125 -2.46875 0.640625 -2.46875 C 0.71875 -2.46875 0.75 -2.515625 0.765625 -2.578125 C 1.046875 -3.46875 1.640625 -3.734375 1.984375 -3.734375 C 2.25 -3.734375 2.46875 -3.5625 2.46875 -3.140625 C 2.46875 -2.828125 2.09375 -1.390625 1.96875 -0.953125 C 1.90625 -0.6875 1.625 -0.125 1.140625 -0.125 C 0.953125 -0.125 0.765625 -0.1875 0.6875 -0.234375 C 0.921875 -0.28125 1.109375 -0.5 1.109375 -0.71875 C 1.109375 -0.953125 0.9375 -1.046875 0.765625 -1.046875 C 0.5 -1.046875 0.265625 -0.828125 0.265625 -0.515625 C 0.265625 -0.078125 0.75 0.09375 1.125 0.09375 C 1.65625 0.09375 1.953125 -0.328125 2.09375 -0.578125 C 2.3125 0.015625 2.84375 0.09375 3.078125 0.09375 C 4.046875 0.09375 4.5625 -1.0625 4.5625 -1.28125 C 4.5625 -1.328125 4.53125 -1.390625 4.453125 -1.390625 C 4.34375 -1.390625 4.34375 -1.359375 4.296875 -1.21875 C 4.09375 -0.578125 3.578125 -0.125 3.109375 -0.125 C 2.859375 -0.125 2.609375 -0.28125 2.609375 -0.71875 C 2.609375 -0.921875 2.734375 -1.40625 2.8125 -1.75 C 2.859375 -1.90625 3.09375 -2.875 3.109375 -2.9375 C 3.21875 -3.265625 3.484375 -3.734375 3.953125 -3.734375 C 4.109375 -3.734375 4.28125 -3.71875 4.40625 -3.625 Z M 4.40625 -3.625 "
           id="path29" />
      </g>
      <g
         id="glyph-5-0">
        <path
           d="M 6.34375 -2.96875 C 6.46875 -2.96875 6.640625 -2.96875 6.640625 -3.15625 C 6.640625 -3.359375 6.453125 -3.359375 6.3125 -3.359375 L 0.84375 -3.359375 C 0.703125 -3.359375 0.515625 -3.359375 0.515625 -3.15625 C 0.515625 -2.96875 0.6875 -2.96875 0.8125 -2.96875 Z M 6.3125 -1.140625 C 6.453125 -1.140625 6.640625 -1.140625 6.640625 -1.34375 C 6.640625 -1.53125 6.46875 -1.53125 6.34375 -1.53125 L 0.8125 -1.53125 C 0.6875 -1.53125 0.515625 -1.53125 0.515625 -1.34375 C 0.515625 -1.140625 0.703125 -1.140625 0.84375 -1.140625 Z M 6.3125 -1.140625 "
           id="path32" />
      </g>
      <g
         id="glyph-5-1">
        <path
           d="M 3.0625 2.140625 C 3.0625 2.09375 3.03125 2.0625 2.984375 2 C 1.828125 0.9375 1.46875 -0.671875 1.46875 -2.25 C 1.46875 -3.625 1.734375 -5.3125 3 -6.515625 C 3.046875 -6.5625 3.0625 -6.578125 3.0625 -6.625 C 3.0625 -6.6875 3.015625 -6.734375 2.953125 -6.734375 C 2.84375 -6.734375 2.03125 -6.078125 1.546875 -5.109375 C 1.125 -4.25 0.90625 -3.3125 0.90625 -2.25 C 0.90625 -1.609375 0.984375 -0.578125 1.484375 0.46875 C 2.015625 1.578125 2.84375 2.234375 2.953125 2.234375 C 3.015625 2.234375 3.0625 2.203125 3.0625 2.140625 Z M 3.0625 2.140625 "
           id="path35" />
      </g>
      <g
         id="glyph-5-2">
        <path
           d="M 2.671875 -2.25 C 2.671875 -2.984375 2.5625 -3.96875 2.09375 -4.96875 C 1.5625 -6.078125 0.734375 -6.734375 0.625 -6.734375 C 0.53125 -6.734375 0.515625 -6.65625 0.515625 -6.625 C 0.515625 -6.578125 0.53125 -6.5625 0.59375 -6.5 C 1.125 -6.03125 2.109375 -4.8125 2.109375 -2.25 C 2.109375 -0.96875 1.875 0.8125 0.578125 2.03125 C 0.5625 2.046875 0.515625 2.09375 0.515625 2.140625 C 0.515625 2.15625 0.53125 2.234375 0.625 2.234375 C 0.734375 2.234375 1.546875 1.59375 2.03125 0.609375 C 2.453125 -0.25 2.671875 -1.171875 2.671875 -2.25 Z M 2.671875 -2.25 "
           id="path38" />
      </g>
      <g
         id="glyph-5-3">
        <path
           d="M 6.328125 -2.046875 C 6.453125 -2.046875 6.640625 -2.046875 6.640625 -2.25 C 6.640625 -2.4375 6.46875 -2.4375 6.328125 -2.4375 L 3.78125 -2.4375 L 3.78125 -5 C 3.78125 -5.140625 3.78125 -5.3125 3.578125 -5.3125 C 3.390625 -5.3125 3.390625 -5.125 3.390625 -5 L 3.390625 -2.4375 L 0.828125 -2.4375 C 0.703125 -2.4375 0.515625 -2.4375 0.515625 -2.25 C 0.515625 -2.046875 0.6875 -2.046875 0.828125 -2.046875 L 3.390625 -2.046875 L 3.390625 0.515625 C 3.390625 0.65625 3.390625 0.828125 3.59375 0.828125 C 3.78125 0.828125 3.78125 0.640625 3.78125 0.515625 L 3.78125 -2.046875 Z M 6.328125 -2.046875 "
           id="path41" />
      </g>
      <g
         id="glyph-5-4">
        <path
           d="M 4.140625 -1.59375 L 3.890625 -1.59375 C 3.875 -1.46875 3.796875 -0.9375 3.6875 -0.796875 C 3.625 -0.71875 3.015625 -0.71875 2.828125 -0.71875 L 1.234375 -0.71875 L 2.125 -1.5625 C 3.59375 -2.828125 4.140625 -3.3125 4.140625 -4.21875 C 4.140625 -5.25 3.296875 -5.96875 2.1875 -5.96875 C 1.15625 -5.96875 0.453125 -5.15625 0.453125 -4.34375 C 0.453125 -3.890625 0.84375 -3.84375 0.921875 -3.84375 C 1.125 -3.84375 1.390625 -3.984375 1.390625 -4.3125 C 1.390625 -4.578125 1.203125 -4.78125 0.921875 -4.78125 C 0.875 -4.78125 0.859375 -4.78125 0.8125 -4.765625 C 1.03125 -5.40625 1.609375 -5.6875 2.09375 -5.6875 C 3 -5.6875 3.3125 -4.84375 3.3125 -4.21875 C 3.3125 -3.3125 2.625 -2.5625 2.203125 -2.09375 L 0.5625 -0.328125 C 0.453125 -0.21875 0.453125 -0.203125 0.453125 0 L 3.890625 0 Z M 4.140625 -1.59375 "
           id="path44" />
      </g>
      <g
         id="glyph-6-0">
        <path
           d="M 3.21875 -1.125 L 3 -1.125 C 2.984375 -1.03125 2.921875 -0.640625 2.84375 -0.578125 C 2.796875 -0.53125 2.3125 -0.53125 2.21875 -0.53125 L 1.109375 -0.53125 L 1.875 -1.15625 C 2.078125 -1.328125 2.609375 -1.703125 2.796875 -1.890625 C 2.96875 -2.0625 3.21875 -2.375 3.21875 -2.796875 C 3.21875 -3.546875 2.546875 -3.984375 1.734375 -3.984375 C 0.96875 -3.984375 0.4375 -3.46875 0.4375 -2.90625 C 0.4375 -2.609375 0.6875 -2.5625 0.75 -2.5625 C 0.90625 -2.5625 1.078125 -2.671875 1.078125 -2.890625 C 1.078125 -3.015625 1 -3.21875 0.734375 -3.21875 C 0.875 -3.515625 1.234375 -3.75 1.65625 -3.75 C 2.28125 -3.75 2.609375 -3.28125 2.609375 -2.796875 C 2.609375 -2.375 2.328125 -1.9375 1.921875 -1.546875 L 0.5 -0.25 C 0.4375 -0.1875 0.4375 -0.1875 0.4375 0 L 3.03125 0 Z M 3.21875 -1.125 "
           id="path47" />
      </g>
      <g
         id="glyph-7-0">
        <path
           d="M 6.046875 -2.046875 C 6.21875 -2.046875 6.390625 -2.046875 6.390625 -2.25 C 6.390625 -2.4375 6.203125 -2.4375 6.046875 -2.4375 L 1.109375 -2.4375 C 0.953125 -2.4375 0.765625 -2.4375 0.765625 -2.25 C 0.765625 -2.046875 0.9375 -2.046875 1.109375 -2.046875 Z M 6.046875 -2.046875 "
           id="path50" />
      </g>
      <g
         id="glyph-7-1">
        <path
           d="M 1.46875 -6.390625 C 1.46875 -6.546875 1.46875 -6.734375 1.28125 -6.734375 C 1.078125 -6.734375 1.078125 -6.5625 1.078125 -6.390625 L 1.078125 1.90625 C 1.078125 2.0625 1.078125 2.25 1.28125 2.25 C 1.46875 2.25 1.46875 2.078125 1.46875 1.90625 Z M 1.46875 -6.390625 "
           id="path53" />
      </g>
      <g
         id="glyph-8-0">
        <path
           d="M 4.765625 -2.484375 L 5.953125 -2.484375 L 5.953125 -0.390625 L 4.765625 -0.390625 Z M 4.765625 -3.078125 L 4.765625 -5.015625 L 5.953125 -5.015625 L 5.953125 -3.078125 Z M 7.71875 -2.484375 L 7.71875 -0.390625 L 6.5625 -0.390625 L 6.5625 -2.484375 Z M 7.71875 -3.078125 L 6.5625 -3.078125 L 6.5625 -5.015625 L 7.71875 -5.015625 Z M 5.921875 -7.53125 L 5.921875 -5.625 L 4.15625 -5.625 L 4.15625 0.71875 L 4.765625 0.71875 L 4.765625 0.21875 L 7.71875 0.21875 L 7.71875 0.65625 L 8.34375 0.65625 L 8.34375 -5.625 L 6.59375 -5.625 L 6.59375 -7.53125 Z M 0.75 -2.984375 C 0.828125 -3.046875 1.109375 -3.109375 1.421875 -3.109375 L 2.28125 -3.109375 L 2.28125 -1.828125 L 0.390625 -1.5 L 0.53125 -0.84375 L 2.28125 -1.1875 L 2.28125 0.671875 L 2.890625 0.671875 L 2.890625 -1.3125 L 3.828125 -1.5 L 3.796875 -2.09375 L 2.890625 -1.921875 L 2.890625 -3.109375 L 3.75 -3.109375 L 3.75 -3.71875 L 2.890625 -3.71875 L 2.890625 -5.109375 L 2.28125 -5.109375 L 2.28125 -3.71875 L 1.359375 -3.71875 C 1.609375 -4.34375 1.875 -5.078125 2.09375 -5.859375 L 3.734375 -5.859375 L 3.734375 -6.5 L 2.25 -6.5 C 2.328125 -6.796875 2.390625 -7.109375 2.453125 -7.40625 L 1.796875 -7.53125 C 1.75 -7.1875 1.671875 -6.828125 1.609375 -6.5 L 0.46875 -6.5 L 0.46875 -5.859375 L 1.453125 -5.859375 C 1.265625 -5.125 1.0625 -4.515625 0.984375 -4.296875 C 0.828125 -3.90625 0.703125 -3.609375 0.546875 -3.5625 C 0.625 -3.40625 0.71875 -3.109375 0.75 -2.984375 Z M 0.75 -2.984375 "
           id="path56" />
      </g>
      <g
         id="glyph-8-1">
        <path
           d="M 0.5 -6.875 L 0.5 -6.203125 L 3.953125 -6.203125 L 3.953125 0.703125 L 4.65625 0.703125 L 4.65625 -4.046875 C 5.6875 -3.484375 6.890625 -2.75 7.53125 -2.25 L 8 -2.859375 C 7.28125 -3.40625 5.859375 -4.203125 4.796875 -4.734375 L 4.65625 -4.578125 L 4.65625 -6.203125 L 8.484375 -6.203125 L 8.484375 -6.875 Z M 0.5 -6.875 "
           id="path59" />
      </g>
      <g
         id="glyph-8-2">
        <path
           d="M 3.953125 -7.34375 C 4.171875 -6.921875 4.453125 -6.34375 4.5625 -5.984375 L 0.609375 -5.984375 L 0.609375 -5.328125 L 3.0625 -5.328125 C 2.953125 -3.265625 2.71875 -0.9375 0.40625 0.203125 C 0.59375 0.328125 0.8125 0.5625 0.90625 0.734375 C 2.609375 -0.15625 3.28125 -1.640625 3.5625 -3.234375 L 6.78125 -3.234375 C 6.640625 -1.203125 6.453125 -0.34375 6.203125 -0.109375 C 6.078125 -0.015625 5.96875 0 5.765625 0 C 5.53125 0 4.890625 -0.015625 4.25 -0.0625 C 4.390625 0.109375 4.46875 0.390625 4.5 0.59375 C 5.09375 0.640625 5.6875 0.640625 6 0.625 C 6.34375 0.59375 6.578125 0.53125 6.78125 0.3125 C 7.125 -0.046875 7.3125 -1.015625 7.484375 -3.5625 C 7.5 -3.671875 7.515625 -3.890625 7.515625 -3.890625 L 3.671875 -3.890625 C 3.734375 -4.375 3.765625 -4.859375 3.796875 -5.328125 L 8.390625 -5.328125 L 8.390625 -5.984375 L 4.609375 -5.984375 L 5.25 -6.265625 C 5.125 -6.625 4.84375 -7.171875 4.59375 -7.59375 Z M 3.953125 -7.34375 "
           id="path62" />
      </g>
      <g
         id="glyph-8-3">
        <path
           d="M 4.953125 -3.796875 C 5.4375 -3.140625 6.046875 -2.25 6.328125 -1.6875 L 6.890625 -2.046875 C 6.59375 -2.578125 5.984375 -3.453125 5.46875 -4.09375 Z M 2.15625 -7.546875 C 2.078125 -7.125 1.921875 -6.53125 1.78125 -6.09375 L 0.78125 -6.09375 L 0.78125 0.484375 L 1.40625 0.484375 L 1.40625 -0.21875 L 3.90625 -0.21875 L 3.90625 -6.09375 L 2.40625 -6.09375 C 2.5625 -6.46875 2.71875 -6.984375 2.875 -7.421875 Z M 1.40625 -5.484375 L 3.28125 -5.484375 L 3.28125 -3.59375 L 1.40625 -3.59375 Z M 1.40625 -0.828125 L 1.40625 -3 L 3.28125 -3 L 3.28125 -0.828125 Z M 5.359375 -7.5625 C 5.078125 -6.328125 4.59375 -5.09375 3.96875 -4.296875 C 4.140625 -4.203125 4.40625 -4.015625 4.53125 -3.90625 C 4.84375 -4.34375 5.125 -4.890625 5.375 -5.5 L 7.671875 -5.5 C 7.5625 -1.90625 7.421875 -0.515625 7.140625 -0.21875 C 7.03125 -0.09375 6.9375 -0.0625 6.75 -0.0625 C 6.546875 -0.0625 6.015625 -0.078125 5.421875 -0.109375 C 5.546875 0.046875 5.625 0.34375 5.640625 0.53125 C 6.140625 0.5625 6.671875 0.578125 6.984375 0.546875 C 7.296875 0.515625 7.5 0.4375 7.703125 0.171875 C 8.0625 -0.265625 8.1875 -1.65625 8.328125 -5.78125 C 8.328125 -5.859375 8.328125 -6.109375 8.328125 -6.109375 L 5.625 -6.109375 C 5.765625 -6.53125 5.90625 -6.984375 6.015625 -7.421875 Z M 5.359375 -7.5625 "
           id="path65" />
      </g>
      <g
         id="glyph-8-4">
        <path
           d="M 1.265625 -5.625 C 1.5 -5.140625 1.75 -4.5 1.828125 -4.078125 L 2.4375 -4.265625 C 2.359375 -4.671875 2.109375 -5.296875 1.84375 -5.78125 Z M 5.625 -7.0625 L 5.625 0.703125 L 6.21875 0.703125 L 6.21875 -6.4375 L 7.671875 -6.4375 C 7.421875 -5.734375 7.078125 -4.78125 6.734375 -4.015625 C 7.546875 -3.203125 7.765625 -2.546875 7.765625 -1.984375 C 7.78125 -1.671875 7.71875 -1.390625 7.53125 -1.28125 C 7.4375 -1.21875 7.296875 -1.1875 7.171875 -1.1875 C 6.984375 -1.1875 6.734375 -1.1875 6.46875 -1.203125 C 6.578125 -1.015625 6.640625 -0.75 6.65625 -0.578125 C 6.921875 -0.5625 7.203125 -0.5625 7.421875 -0.578125 C 7.640625 -0.609375 7.84375 -0.65625 7.984375 -0.765625 C 8.28125 -0.96875 8.390625 -1.40625 8.390625 -1.921875 C 8.390625 -2.546875 8.203125 -3.25 7.390625 -4.09375 C 7.78125 -4.9375 8.1875 -5.953125 8.5 -6.796875 L 8.046875 -7.078125 L 7.9375 -7.0625 Z M 2.21875 -7.40625 C 2.34375 -7.125 2.5 -6.765625 2.59375 -6.46875 L 0.71875 -6.46875 L 0.71875 -5.859375 L 4.953125 -5.859375 L 4.953125 -6.46875 L 3.28125 -6.46875 C 3.1875 -6.78125 3 -7.234375 2.8125 -7.5625 Z M 3.890625 -5.8125 C 3.734375 -5.296875 3.46875 -4.5625 3.234375 -4.046875 L 0.453125 -4.046875 L 0.453125 -3.4375 L 5.15625 -3.4375 L 5.15625 -4.046875 L 3.890625 -4.046875 C 4.109375 -4.515625 4.34375 -5.125 4.5625 -5.65625 Z M 0.984375 -2.609375 L 0.984375 0.65625 L 1.609375 0.65625 L 1.609375 0.234375 L 4.078125 0.234375 L 4.078125 0.59375 L 4.75 0.59375 L 4.75 -2.609375 Z M 1.609375 -0.375 L 1.609375 -2 L 4.078125 -2 L 4.078125 -0.375 Z M 1.609375 -0.375 "
           id="path68" />
      </g>
      <g
         id="glyph-8-5">
        <path
           d="M 6.03125 -7.375 L 5.421875 -7.125 C 6.046875 -5.796875 7.125 -4.328125 8.078125 -3.53125 C 8.203125 -3.703125 8.453125 -3.953125 8.625 -4.09375 C 7.6875 -4.796875 6.59375 -6.15625 6.03125 -7.375 Z M 2.90625 -7.359375 C 2.390625 -5.984375 1.46875 -4.734375 0.390625 -3.96875 C 0.5625 -3.84375 0.859375 -3.578125 0.96875 -3.4375 C 1.203125 -3.640625 1.4375 -3.859375 1.671875 -4.09375 L 1.671875 -3.484375 L 3.40625 -3.484375 C 3.203125 -1.953125 2.703125 -0.53125 0.578125 0.171875 C 0.734375 0.3125 0.921875 0.578125 1 0.75 C 3.28125 -0.078125 3.875 -1.703125 4.109375 -3.484375 L 6.5625 -3.484375 C 6.453125 -1.234375 6.328125 -0.359375 6.09375 -0.125 C 6.015625 -0.03125 5.90625 -0.015625 5.71875 -0.015625 C 5.5 -0.015625 4.953125 -0.015625 4.375 -0.078125 C 4.5 0.109375 4.578125 0.40625 4.59375 0.59375 C 5.15625 0.640625 5.703125 0.640625 6.015625 0.625 C 6.3125 0.59375 6.515625 0.53125 6.703125 0.3125 C 7.015625 -0.046875 7.140625 -1.0625 7.28125 -3.828125 C 7.28125 -3.90625 7.28125 -4.140625 7.28125 -4.140625 L 1.71875 -4.140625 C 2.484375 -4.953125 3.15625 -6.015625 3.625 -7.15625 Z M 2.90625 -7.359375 "
           id="path71" />
      </g>
      <g
         id="glyph-8-6">
        <path
           d="M 2.015625 -7.171875 C 2.375 -6.6875 2.75 -6.046875 2.90625 -5.625 L 1.15625 -5.625 L 1.15625 -4.953125 L 4.140625 -4.953125 L 4.140625 -3.859375 C 4.140625 -3.6875 4.125 -3.53125 4.109375 -3.359375 L 0.609375 -3.359375 L 0.609375 -2.6875 L 3.984375 -2.6875 C 3.6875 -1.71875 2.84375 -0.6875 0.4375 0.109375 C 0.609375 0.265625 0.828125 0.5625 0.921875 0.703125 C 3.234375 -0.09375 4.21875 -1.140625 4.625 -2.171875 C 5.375 -0.796875 6.53125 0.1875 8.140625 0.65625 C 8.25 0.453125 8.453125 0.15625 8.609375 0.015625 C 6.96875 -0.390625 5.734375 -1.359375 5.0625 -2.6875 L 8.390625 -2.6875 L 8.390625 -3.359375 L 4.875 -3.359375 L 4.890625 -3.84375 L 4.890625 -4.953125 L 7.90625 -4.953125 L 7.90625 -5.625 L 6.125 -5.625 C 6.453125 -6.109375 6.8125 -6.71875 7.109375 -7.25 L 6.375 -7.5 C 6.15625 -6.9375 5.734375 -6.15625 5.375 -5.625 L 2.921875 -5.625 L 3.515625 -5.953125 C 3.34375 -6.375 2.953125 -7 2.578125 -7.453125 Z M 2.015625 -7.171875 "
           id="path74" />
      </g>
      <g
         id="glyph-8-7">
        <path
           d="M 1.109375 -6.890625 L 1.109375 -6.21875 L 4.21875 -6.21875 L 4.21875 -3.953125 L 0.5 -3.953125 L 0.5 -3.28125 L 4.21875 -3.28125 L 4.21875 -0.265625 C 4.21875 -0.078125 4.140625 -0.03125 3.953125 -0.03125 C 3.75 -0.015625 3.0625 -0.015625 2.328125 -0.03125 C 2.4375 0.15625 2.5625 0.46875 2.59375 0.671875 C 3.53125 0.671875 4.109375 0.65625 4.453125 0.546875 C 4.796875 0.4375 4.921875 0.21875 4.921875 -0.265625 L 4.921875 -3.28125 L 8.484375 -3.28125 L 8.484375 -3.953125 L 4.921875 -3.953125 L 4.921875 -6.21875 L 7.859375 -6.21875 L 7.859375 -6.890625 Z M 1.109375 -6.890625 "
           id="path77" />
      </g>
      <g
         id="glyph-8-8">
        <path
           d="M 4.578125 -5.515625 C 4.8125 -4.953125 5.0625 -4.171875 5.171875 -3.71875 L 5.640625 -3.890625 C 5.546875 -4.328125 5.28125 -5.078125 5.015625 -5.65625 Z M 6.578125 -5.546875 C 6.828125 -4.984375 7.078125 -4.21875 7.171875 -3.78125 L 7.65625 -3.921875 C 7.546875 -4.359375 7.28125 -5.109375 7.03125 -5.65625 Z M 3.609375 -6.609375 C 3.5 -6.265625 3.28125 -5.734375 3.109375 -5.375 L 2.8125 -5.375 L 2.8125 -6.75 C 3.359375 -6.828125 3.890625 -6.90625 4.296875 -7 L 3.921875 -7.46875 C 3.125 -7.28125 1.671875 -7.109375 0.5 -7.046875 C 0.5625 -6.921875 0.625 -6.703125 0.65625 -6.578125 C 1.140625 -6.59375 1.6875 -6.640625 2.234375 -6.6875 L 2.234375 -5.375 L 0.4375 -5.375 L 0.4375 -4.859375 L 2 -4.859375 C 1.578125 -4.25 0.890625 -3.625 0.328125 -3.28125 C 0.421875 -3.125 0.5625 -2.875 0.609375 -2.703125 L 0.75 -2.796875 L 0.75 0.703125 L 1.28125 0.703125 L 1.28125 0.203125 L 3.671875 0.203125 L 3.671875 0.59375 L 4.21875 0.59375 L 4.21875 -2.875 L 0.84375 -2.875 C 1.328125 -3.25 1.84375 -3.796875 2.234375 -4.34375 L 2.234375 -3.03125 L 2.8125 -3.03125 L 2.8125 -4.375 C 3.265625 -4 3.890625 -3.46875 4.125 -3.203125 L 4.46875 -3.734375 C 4.25 -3.921875 3.34375 -4.5625 2.890625 -4.859375 L 4.328125 -4.859375 L 4.328125 -5.375 L 3.625 -5.375 C 3.796875 -5.6875 3.96875 -6.078125 4.125 -6.4375 Z M 0.890625 -6.375 C 1.03125 -6.046875 1.1875 -5.625 1.25 -5.375 L 1.734375 -5.53125 C 1.65625 -5.78125 1.5 -6.171875 1.359375 -6.484375 Z M 2.265625 -1.125 L 2.265625 -0.34375 L 1.28125 -0.34375 L 1.28125 -1.125 Z M 2.765625 -1.125 L 3.671875 -1.125 L 3.671875 -0.34375 L 2.765625 -0.34375 Z M 2.265625 -1.609375 L 1.28125 -1.609375 L 1.28125 -2.34375 L 2.265625 -2.34375 Z M 2.765625 -1.609375 L 2.765625 -2.34375 L 3.671875 -2.34375 L 3.671875 -1.609375 Z M 4.421875 -1.78125 L 4.734375 -1.3125 C 5.0625 -1.671875 5.4375 -2.078125 5.796875 -2.5 L 5.796875 -0.046875 C 5.796875 0.0625 5.765625 0.09375 5.671875 0.09375 C 5.5625 0.09375 5.234375 0.09375 4.890625 0.09375 C 4.984375 0.25 5.0625 0.515625 5.078125 0.671875 C 5.5625 0.671875 5.890625 0.65625 6.09375 0.5625 C 6.28125 0.453125 6.359375 0.28125 6.359375 -0.046875 L 6.359375 -7.109375 L 4.59375 -7.109375 L 4.59375 -6.53125 L 5.796875 -6.53125 L 5.796875 -3.265625 C 5.28125 -2.6875 4.765625 -2.140625 4.421875 -1.78125 Z M 6.46875 -1.890625 L 6.796875 -1.421875 C 7.109375 -1.734375 7.4375 -2.109375 7.78125 -2.5 L 7.78125 -0.078125 C 7.78125 0.046875 7.734375 0.09375 7.625 0.09375 C 7.53125 0.09375 7.1875 0.09375 6.828125 0.078125 C 6.921875 0.234375 7.015625 0.53125 7.046875 0.6875 C 7.53125 0.6875 7.859375 0.671875 8.078125 0.578125 C 8.28125 0.46875 8.359375 0.28125 8.359375 -0.0625 L 8.359375 -7.109375 L 6.578125 -7.109375 L 6.578125 -6.53125 L 7.78125 -6.53125 L 7.78125 -3.25 C 7.296875 -2.71875 6.8125 -2.203125 6.46875 -1.890625 Z M 6.46875 -1.890625 "
           id="path80" />
      </g>
      <g
         id="glyph-8-9">
        <path
           d="M 4.078125 -6.734375 L 4.078125 -3.90625 C 4.078125 -2.5 3.96875 -1.015625 3.078125 0.265625 C 3.25 0.375 3.484375 0.5625 3.609375 0.703125 C 4.578125 -0.6875 4.734375 -2.265625 4.734375 -3.90625 L 6.4375 -3.90625 L 6.4375 0.65625 L 7.09375 0.65625 L 7.09375 -3.90625 L 8.609375 -3.90625 L 8.609375 -4.546875 L 4.734375 -4.546875 L 4.734375 -6.234375 C 5.96875 -6.390625 7.34375 -6.609375 8.28125 -6.890625 L 7.859375 -7.46875 C 6.953125 -7.171875 5.390625 -6.890625 4.078125 -6.734375 Z M 1.734375 -7.53125 L 1.734375 -5.71875 L 0.46875 -5.71875 L 0.46875 -5.078125 L 1.734375 -5.078125 L 1.734375 -3.15625 L 0.34375 -2.78125 L 0.53125 -2.125 L 1.734375 -2.484375 L 1.734375 -0.109375 C 1.734375 0.015625 1.671875 0.046875 1.5625 0.046875 C 1.4375 0.046875 1.0625 0.0625 0.65625 0.046875 C 0.75 0.21875 0.84375 0.5 0.875 0.671875 C 1.46875 0.671875 1.828125 0.65625 2.078125 0.546875 C 2.3125 0.4375 2.390625 0.265625 2.390625 -0.109375 L 2.390625 -2.6875 L 3.65625 -3.0625 L 3.5625 -3.6875 L 2.390625 -3.34375 L 2.390625 -5.078125 L 3.59375 -5.078125 L 3.59375 -5.71875 L 2.390625 -5.71875 L 2.390625 -7.53125 Z M 1.734375 -7.53125 "
           id="path83" />
      </g>
    </g>
    <clipPath
       id="clip-0">
      <path
         clip-rule="nonzero"
         d="M 331 0 L 391.121094 0 L 391.121094 159 L 331 159 Z M 331 0 "
         id="path88" />
    </clipPath>
  </defs>
  <path
     fill="none"
     stroke-width="0.19925"
     stroke-linecap="butt"
     stroke-linejoin="miter"
     stroke="rgb(50%, 50%, 50%)"
     stroke-opacity="1"
     stroke-miterlimit="10"
     d="M 28.979594 48.329031 L 28.979594 52.582937 M 115.917094 48.329031 L 115.917094 52.582937 "
     transform="matrix(1, 0, 0, -1, 5.579, 154.372)"
     id="path93" />
  <path
     fill="none"
     stroke-width="0.19925"
     stroke-linecap="butt"
     stroke-linejoin="miter"
     stroke="rgb(50%, 50%, 50%)"
     stroke-opacity="1"
     stroke-miterlimit="10"
     d="M 84.811625 13.235281 L 89.065531 13.235281 "
     transform="matrix(1, 0, 0, -1, 5.579, 154.372)"
     id="path95" />
  <path
     fill="none"
     stroke-width="0.3985"
     stroke-linecap="butt"
     stroke-linejoin="miter"
     stroke="rgb(0%, 0%, 0%)"
     stroke-opacity="1"
     stroke-miterlimit="10"
     d="M -0.000875 50.454031 L 151.600687 50.454031 "
     transform="matrix(1, 0, 0, -1, 5.579, 154.372)"
     id="path97" />
  <path
     fill-rule="nonzero"
     fill="rgb(0%, 0%, 0%)"
     fill-opacity="1"
     d="M 159.171875 103.917969 L 155.984375 102.324219 L 157.179688 103.917969 L 155.984375 105.511719 "
     id="path99" />
  <path
     fill="none"
     stroke-width="0.3985"
     stroke-linecap="butt"
     stroke-linejoin="miter"
     stroke="rgb(0%, 0%, 0%)"
     stroke-opacity="1"
     stroke-miterlimit="10"
     d="M 86.940531 0.00090625 L 86.940531 100.571219 "
     transform="matrix(1, 0, 0, -1, 5.579, 154.372)"
     id="path101" />
  <path
     fill-rule="nonzero"
     fill="rgb(0%, 0%, 0%)"
     fill-opacity="1"
     d="M 92.519531 51.808594 L 90.921875 54.996094 L 92.519531 53.800781 L 94.113281 54.996094 "
     id="path103" />
  <g
     fill="#000000"
     fill-opacity="1"
     id="g107">
    <use
       xlink:href="#glyph-0-0"
       x="28.193001"
       y="115.983"
       id="use105" />
  </g>
  <g
     fill="#000000"
     fill-opacity="1"
     id="g111">
    <use
       xlink:href="#glyph-1-0"
       x="35.942001"
       y="115.983"
       id="use109" />
  </g>
  <g
     fill="#000000"
     fill-opacity="1"
     id="g115">
    <use
       xlink:href="#glyph-1-1"
       x="119.006"
       y="115.983"
       id="use113" />
  </g>
  <g
     fill="#000000"
     fill-opacity="1"
     id="g119">
    <use
       xlink:href="#glyph-0-0"
       x="72.761002"
       y="143.62801"
       id="use117" />
  </g>
  <g
     fill="#000000"
     fill-opacity="1"
     id="g123">
    <use
       xlink:href="#glyph-2-0"
       x="81.705002"
       y="139.70599"
       id="use121" />
  </g>
  <path
     fill="none"
     stroke-width="0.3985"
     stroke-linecap="butt"
     stroke-linejoin="miter"
     stroke="rgb(0%, 0%, 0%)"
     stroke-opacity="1"
     stroke-miterlimit="10"
     d="M -56.880875 -79.682719 L -52.908219 -79.682719 "
     transform="matrix(1, 0, 0, -1, 138.584, 61.454)"
     id="path125" />
  <g
     fill="#000000"
     fill-opacity="1"
     id="g129">
    <use
       xlink:href="#glyph-2-1"
       x="81.705002"
       y="147.064"
       id="use127" />
  </g>
  <path
     fill="none"
     stroke-width="1.19553"
     stroke-linecap="butt"
     stroke-linejoin="miter"
     stroke="rgb(0%, 0%, 0%)"
     stroke-opacity="1"
     stroke-miterlimit="10"
     d="M -0.000875 116.625906 L 0.835062 114.258719 L 1.667094 111.922781 L 2.503031 109.610281 L 3.335062 107.325125 L 4.167094 105.071219 L 5.003031 102.84075 L 5.835062 100.637625 L 6.671 98.46575 L 7.503031 96.317312 L 8.338969 94.200125 L 9.171 92.106375 L 10.006937 90.039969 L 10.838969 88.004812 L 11.671 85.993094 L 12.506937 84.012625 L 13.338969 82.055594 L 14.174906 80.129812 L 15.006937 78.227469 L 15.842875 76.356375 L 16.674906 74.508719 L 17.510844 72.692312 L 18.342875 70.899344 L 19.174906 69.137625 L 20.010844 67.399344 L 20.842875 65.692312 L 21.678812 64.008719 L 22.510844 62.356375 L 23.346781 60.731375 L 24.178812 59.129812 L 25.01475 57.5595 L 25.846781 56.012625 L 26.678812 54.497 L 27.51475 53.008719 L 28.346781 51.543875 L 29.182719 50.110281 L 30.01475 48.704031 L 30.850687 47.321219 L 31.682719 45.969656 L 32.518656 44.645437 L 33.350687 43.344656 L 34.182719 42.075125 L 35.018656 40.832937 L 35.850687 39.618094 L 36.686625 38.426687 L 37.518656 37.266531 L 38.354594 36.133719 L 39.186625 35.02825 L 40.022562 33.950125 L 40.854594 32.895437 L 41.686625 31.872 L 42.522562 30.875906 L 43.354594 29.907156 L 44.190531 28.96575 L 45.022562 28.051687 L 45.8585 27.164969 L 46.690531 26.301687 L 47.526469 25.469656 L 48.3585 24.664969 L 49.190531 23.887625 L 50.026469 23.137625 L 50.8585 22.414969 L 51.694437 21.719656 L 52.526469 21.051687 L 53.362406 20.411062 L 54.194437 19.797781 L 55.026469 19.211844 L 55.862406 18.65325 L 56.694437 18.122 L 57.530375 17.618094 L 58.362406 17.141531 L 59.198344 16.692312 L 60.030375 16.270437 L 60.866312 15.875906 L 61.698344 15.512625 L 62.530375 15.172781 L 63.366312 14.860281 L 64.198344 14.575125 L 65.034281 14.317312 L 65.866312 14.086844 L 66.70225 13.883719 L 67.534281 13.707937 L 68.370219 13.563406 L 69.20225 13.442312 L 70.034281 13.348562 L 70.870219 13.282156 L 71.70225 13.247 L 72.538187 13.235281 L 73.370219 13.250906 L 74.206156 13.293875 L 75.038187 13.368094 L 75.874125 13.46575 L 76.706156 13.59075 L 77.538187 13.743094 L 78.374125 13.926687 L 79.206156 14.133719 L 80.042094 14.368094 L 80.874125 14.633719 L 81.710062 14.922781 L 82.542094 15.243094 L 83.378031 15.586844 L 84.210062 15.957937 L 85.042094 16.360281 L 85.878031 16.786062 L 86.710062 17.243094 L 87.546 17.723562 L 88.378031 18.231375 L 89.213969 18.770437 L 90.046 19.332937 L 90.881937 19.926687 L 91.713969 20.543875 L 92.546 21.192312 L 93.381937 21.864187 L 94.213969 22.567312 L 95.049906 23.293875 L 95.881937 24.051687 L 96.717875 24.836844 L 97.549906 25.645437 L 98.385844 26.485281 L 99.217875 27.348562 L 100.049906 28.243094 L 100.885844 29.164969 L 101.717875 30.110281 L 102.553812 31.086844 L 103.385844 32.086844 L 104.221781 33.118094 L 105.053812 34.176687 L 105.88975 35.258719 L 106.721781 36.372 L 107.553812 37.512625 L 108.38975 38.680594 L 109.221781 39.872 L 110.057719 41.094656 L 110.88975 42.344656 L 111.725687 43.618094 L 112.557719 44.922781 L 113.393656 46.254812 L 114.225687 47.614187 L 115.057719 49.000906 L 115.893656 50.411062 L 116.725687 51.852469 L 117.561625 53.321219 L 118.393656 54.817312 L 119.229594 56.34075 L 120.061625 57.891531 L 120.897562 59.469656 L 121.729594 61.075125 L 122.561625 62.704031 L 123.397562 64.364187 L 124.229594 66.051687 L 125.065531 67.766531 L 125.897562 69.508719 L 126.7335 71.27825 L 127.565531 73.075125 L 128.401469 74.899344 L 129.2335 76.750906 L 130.065531 78.629812 L 130.901469 80.536062 L 131.7335 82.469656 L 132.569437 84.430594 L 133.401469 86.418875 L 134.237406 88.4345 L 135.069437 90.477469 L 135.905375 92.547781 L 136.737406 94.645437 L 137.569437 96.774344 L 138.405375 98.926687 L 139.237406 101.106375 L 140.073344 103.313406 L 140.905375 105.547781 L 141.741312 107.8095 L 142.573344 110.098562 L 143.409281 112.418875 L 144.241312 114.762625 L 145.073344 117.133719 L 145.909281 119.532156 L 146.741312 121.957937 L 147.57725 124.414969 L 148.409281 126.895437 L 149.245219 129.40325 "
     transform="matrix(1, 0, 0, -1, 5.579, 154.372)"
     id="path131" />
  <path
     fill="none"
     stroke-width="0.3985"
     stroke-linecap="butt"
     stroke-linejoin="miter"
     stroke="rgb(50%, 50%, 50%)"
     stroke-opacity="1"
     stroke-dasharray="2.98883 2.98883"
     stroke-miterlimit="10"
     d="M 72.448344 3.3095 L 72.448344 98.430594 "
     transform="matrix(1, 0, 0, -1, 5.579, 154.372)"
     id="path133" />
  <path
     fill-rule="nonzero"
     fill="rgb(0%, 0%, 0%)"
     fill-opacity="1"
     stroke-width="0.3985"
     stroke-linecap="butt"
     stroke-linejoin="miter"
     stroke="rgb(0%, 0%, 0%)"
     stroke-opacity="1"
     stroke-miterlimit="10"
     d="M 30.772562 50.454031 C 30.772562 51.446219 29.971781 52.247 28.979594 52.247 C 27.987406 52.247 27.186625 51.446219 27.186625 50.454031 C 27.186625 49.46575 27.987406 48.661062 28.979594 48.661062 C 29.971781 48.661062 30.772562 49.46575 30.772562 50.454031 Z M 30.772562 50.454031 "
     transform="matrix(1, 0, 0, -1, 5.579, 154.372)"
     id="path135" />
  <path
     fill-rule="nonzero"
     fill="rgb(0%, 0%, 0%)"
     fill-opacity="1"
     stroke-width="0.3985"
     stroke-linecap="butt"
     stroke-linejoin="miter"
     stroke="rgb(0%, 0%, 0%)"
     stroke-opacity="1"
     stroke-miterlimit="10"
     d="M 117.710062 50.454031 C 117.710062 51.446219 116.909281 52.247 115.917094 52.247 C 114.928812 52.247 114.124125 51.446219 114.124125 50.454031 C 114.124125 49.46575 114.928812 48.661062 115.917094 48.661062 C 116.909281 48.661062 117.710062 49.46575 117.710062 50.454031 Z M 117.710062 50.454031 "
     transform="matrix(1, 0, 0, -1, 5.579, 154.372)"
     id="path137" />
  <path
     fill-rule="nonzero"
     fill="rgb(0%, 0%, 0%)"
     fill-opacity="1"
     stroke-width="0.3985"
     stroke-linecap="butt"
     stroke-linejoin="miter"
     stroke="rgb(0%, 0%, 0%)"
     stroke-opacity="1"
     stroke-miterlimit="10"
     d="M 74.241312 13.235281 C 74.241312 14.223562 73.440531 15.02825 72.448344 15.02825 C 71.460062 15.02825 70.655375 14.223562 70.655375 13.235281 C 70.655375 12.243094 71.460062 11.442312 72.448344 11.442312 C 73.440531 11.442312 74.241312 12.243094 74.241312 13.235281 Z M 74.241312 13.235281 "
     transform="matrix(1, 0, 0, -1, 5.579, 154.372)"
     id="path139" />
  <g
     fill="#000000"
     fill-opacity="1"
     id="g143">
    <use
       xlink:href="#glyph-3-0"
       x="149.957"
       y="100.397"
       id="use141" />
  </g>
  <g
     fill="#000000"
     fill-opacity="1"
     id="g147">
    <use
       xlink:href="#glyph-3-1"
       x="96.037003"
       y="59.616001"
       id="use145" />
  </g>
  <g
     fill="#000000"
     fill-opacity="1"
     id="g151">
    <use
       xlink:href="#glyph-4-0"
       x="37.870998"
       y="42.060001"
       id="use149" />
  </g>
  <g
     fill="#000000"
     fill-opacity="1"
     id="g155">
    <use
       xlink:href="#glyph-5-0"
       x="45.291"
       y="42.060001"
       id="use153" />
  </g>
  <g
     fill="#000000"
     fill-opacity="1"
     id="g159">
    <use
       xlink:href="#glyph-4-1"
       x="55.018002"
       y="42.060001"
       id="use157" />
  </g>
  <g
     fill="#000000"
     fill-opacity="1"
     id="g163">
    <use
       xlink:href="#glyph-5-1"
       x="60.466999"
       y="42.060001"
       id="use161" />
  </g>
  <g
     fill="#000000"
     fill-opacity="1"
     id="g167">
    <use
       xlink:href="#glyph-4-2"
       x="64.050003"
       y="42.060001"
       id="use165" />
  </g>
  <g
     fill="#000000"
     fill-opacity="1"
     id="g171">
    <use
       xlink:href="#glyph-5-2"
       x="69.274002"
       y="42.060001"
       id="use169" />
  </g>
  <g
     fill="#000000"
     fill-opacity="1"
     id="g175">
    <use
       xlink:href="#glyph-5-0"
       x="75.407021"
       y="42.060001"
       id="use173" />
  </g>
  <g
     fill="#000000"
     fill-opacity="1"
     id="g179">
    <use
       xlink:href="#glyph-4-2"
       x="85.144997"
       y="42.060001"
       id="use177" />
  </g>
  <g
     fill="#000000"
     fill-opacity="1"
     id="g183">
    <use
       xlink:href="#glyph-6-0"
       x="90.367996"
       y="38.250999"
       id="use181" />
  </g>
  <g
     fill="#000000"
     fill-opacity="1"
     id="g187">
    <use
       xlink:href="#glyph-5-3"
       x="96.567001"
       y="42.060001"
       id="use185" />
  </g>
  <g
     fill="#000000"
     fill-opacity="1"
     id="g191">
    <use
       xlink:href="#glyph-4-2"
       x="105.782"
       y="42.060001"
       id="use189" />
  </g>
  <g
     fill="#000000"
     fill-opacity="1"
     id="g195">
    <use
       xlink:href="#glyph-7-0"
       x="113.054"
       y="42.060001"
       id="use193" />
  </g>
  <g
     fill="#000000"
     fill-opacity="1"
     id="g199">
    <use
       xlink:href="#glyph-5-4"
       x="122.269"
       y="42.060001"
       id="use197" />
  </g>
  <path
     fill="none"
     stroke-width="0.19925"
     stroke-linecap="butt"
     stroke-linejoin="miter"
     stroke="rgb(50%, 50%, 50%)"
     stroke-opacity="1"
     stroke-miterlimit="10"
     d="M 28.978031 10.693312 L 28.978031 14.947219 M 115.919437 10.693312 L 115.919437 14.947219 "
     transform="matrix(1, 0, 0, -1, 232.354, 154.373)"
     id="path201" />
  <path
     fill="none"
     stroke-width="0.19925"
     stroke-linecap="butt"
     stroke-linejoin="miter"
     stroke="rgb(50%, 50%, 50%)"
     stroke-opacity="1"
     stroke-miterlimit="10"
     d="M 84.813969 76.927687 L 89.063969 76.927687 "
     transform="matrix(1, 0, 0, -1, 232.354, 154.373)"
     id="path203" />
  <path
     fill="none"
     stroke-width="0.3985"
     stroke-linecap="butt"
     stroke-linejoin="miter"
     stroke="rgb(0%, 0%, 0%)"
     stroke-opacity="1"
     stroke-miterlimit="10"
     d="M 0.00146875 12.822219 L 151.599125 12.822219 "
     transform="matrix(1, 0, 0, -1, 232.354, 154.373)"
     id="path205" />
  <path
     fill-rule="nonzero"
     fill="rgb(0%, 0%, 0%)"
     fill-opacity="1"
     d="M 385.945312 141.550781 L 382.757812 139.957031 L 383.953125 141.550781 L 382.757812 143.144531 "
     id="path207" />
  <path
     fill="none"
     stroke-width="0.3985"
     stroke-linecap="butt"
     stroke-linejoin="miter"
     stroke="rgb(0%, 0%, 0%)"
     stroke-opacity="1"
     stroke-miterlimit="10"
     d="M 86.938969 0.00190625 L 86.938969 100.576125 "
     transform="matrix(1, 0, 0, -1, 232.354, 154.373)"
     id="path209" />
  <path
     fill-rule="nonzero"
     fill="rgb(0%, 0%, 0%)"
     fill-opacity="1"
     d="M 319.292969 51.804688 L 317.699219 54.992188 L 319.292969 53.796875 L 320.886719 54.992188 "
     id="path211" />
  <g
     fill="#000000"
     fill-opacity="1"
     id="g215">
    <use
       xlink:href="#glyph-0-0"
       x="254.968"
       y="153.618"
       id="use213" />
  </g>
  <g
     fill="#000000"
     fill-opacity="1"
     id="g219">
    <use
       xlink:href="#glyph-1-0"
       x="262.71701"
       y="153.618"
       id="use217" />
  </g>
  <g
     fill="#000000"
     fill-opacity="1"
     id="g223">
    <use
       xlink:href="#glyph-1-1"
       x="345.78101"
       y="153.618"
       id="use221" />
  </g>
  <g
     fill="#000000"
     fill-opacity="1"
     id="g227">
    <use
       xlink:href="#glyph-2-0"
       x="308.479"
       y="76.014"
       id="use225" />
  </g>
  <path
     fill="none"
     stroke-width="0.3985"
     stroke-linecap="butt"
     stroke-linejoin="miter"
     stroke="rgb(0%, 0%, 0%)"
     stroke-opacity="1"
     stroke-miterlimit="10"
     d="M -64.626531 -76.486313 L -60.657781 -76.486313 "
     transform="matrix(1, 0, 0, -1, 373.107, 0.959)"
     id="path229" />
  <g
     fill="#000000"
     fill-opacity="1"
     id="g233">
    <use
       xlink:href="#glyph-2-1"
       x="308.479"
       y="83.372002"
       id="use231" />
  </g>
  <path
     fill="none"
     stroke-width="1.19553"
     stroke-linecap="butt"
     stroke-linejoin="miter"
     stroke="rgb(0%, 0%, 0%)"
     stroke-opacity="1"
     stroke-miterlimit="10"
     d="M 0.00146875 126.787062 L 0.368656 124.990187 L 0.731937 123.201125 L 1.099125 121.419875 L 1.466312 119.646437 L 1.8335 117.884719 L 2.200687 116.134719 L 2.567875 114.388625 L 2.935062 112.65425 L 3.30225 110.927687 L 3.669437 109.212844 L 4.036625 107.505812 L 4.399906 105.806594 L 4.767094 104.119094 L 5.134281 102.439406 L 5.501469 100.767531 L 5.868656 99.107375 L 6.235844 97.455031 L 6.603031 95.8105 L 6.970219 94.177687 L 7.337406 92.552687 L 7.700687 90.9355 L 8.067875 89.330031 L 8.435062 87.732375 L 8.80225 86.142531 L 9.169437 84.564406 L 9.536625 82.994094 L 9.903812 81.431594 L 10.271 79.880812 L 10.638187 78.337844 L 11.005375 76.802687 L 11.368656 75.27925 L 11.735844 73.763625 L 12.103031 72.255812 L 12.470219 70.759719 L 12.837406 69.271437 L 13.204594 67.790969 L 13.571781 66.322219 L 13.938969 64.861281 L 14.306156 63.408156 L 14.673344 61.96675 L 15.036625 60.533156 L 15.403812 59.111281 L 15.771 57.693312 L 16.138187 56.287062 L 16.505375 54.892531 L 16.872562 53.505812 L 17.23975 52.126906 L 17.606937 50.755812 L 17.974125 49.396437 L 18.341312 48.044875 L 18.704594 46.701125 L 19.071781 45.369094 L 19.438969 44.044875 L 19.806156 42.732375 L 20.173344 41.423781 L 20.540531 40.126906 L 20.907719 38.84175 L 21.274906 37.564406 L 21.642094 36.294875 L 22.009281 35.033156 L 22.372562 33.783156 L 22.73975 32.540969 L 23.106937 31.3105 L 23.474125 30.083937 L 23.841312 28.873 L 24.2085 27.665969 L 24.575687 26.470656 L 24.942875 25.283156 L 25.310062 24.107375 L 25.67725 22.9355 L 26.040531 21.77925 L 26.407719 20.626906 L 26.774906 19.486281 L 27.142094 18.353469 L 27.509281 17.232375 L 27.876469 16.115187 L 28.243656 15.013625 L 28.610844 13.915969 L 28.978031 12.830031 "
     transform="matrix(1, 0, 0, -1, 232.354, 154.373)"
     id="path235" />
  <path
     fill="none"
     stroke-width="1.19553"
     stroke-linecap="butt"
     stroke-linejoin="miter"
     stroke="rgb(0%, 0%, 0%)"
     stroke-opacity="1"
     stroke-miterlimit="10"
     d="M 28.978031 12.822219 L 29.7085 14.958937 L 30.438969 17.056594 L 31.169437 19.123 L 31.899906 21.150344 L 32.634281 23.142531 L 33.36475 25.099562 L 34.095219 27.017531 L 34.825687 28.900344 L 35.556156 30.748 L 36.286625 32.556594 L 37.017094 34.333937 L 37.747562 36.072219 L 38.478031 37.775344 L 39.2085 39.439406 L 39.938969 41.068312 L 40.669437 42.662062 L 41.399906 44.220656 L 42.130375 45.740187 L 42.860844 47.224562 L 43.591312 48.673781 L 44.321781 50.087844 L 45.05225 51.462844 L 45.782719 52.802687 L 46.513187 54.107375 L 47.243656 55.373 L 47.974125 56.607375 L 48.704594 57.802687 L 49.435062 58.958937 L 50.165531 60.083937 L 50.896 61.169875 L 51.626469 62.220656 L 52.356937 63.232375 L 53.087406 64.212844 L 53.817875 65.15425 L 54.548344 66.056594 L 55.278812 66.927687 L 56.009281 67.759719 L 56.73975 68.556594 L 57.470219 69.318312 L 58.200687 70.040969 L 58.931156 70.728469 L 59.665531 71.380812 L 60.396 71.998 L 61.126469 72.576125 L 61.856937 73.119094 L 62.587406 73.626906 L 63.317875 74.099562 L 64.048344 74.533156 L 64.778812 74.931594 L 65.509281 75.290969 L 66.23975 75.619094 L 66.970219 75.908156 L 67.700687 76.162062 L 68.431156 76.380812 L 69.161625 76.5605 L 69.892094 76.705031 L 70.622562 76.814406 L 71.353031 76.884719 L 72.0835 76.923781 L 72.813969 76.923781 L 73.544437 76.884719 L 74.274906 76.814406 L 75.005375 76.705031 L 75.735844 76.5605 L 76.466312 76.380812 L 77.196781 76.162062 L 77.92725 75.908156 L 78.657719 75.619094 L 79.388187 75.294875 L 80.118656 74.931594 L 80.849125 74.533156 L 81.579594 74.099562 L 82.310062 73.626906 L 83.040531 73.119094 L 83.771 72.576125 L 84.501469 71.998 L 85.231937 71.380812 L 85.962406 70.728469 L 86.696781 70.040969 L 87.42725 69.318312 L 88.157719 68.556594 L 88.888187 67.759719 L 89.618656 66.927687 L 90.349125 66.056594 L 91.079594 65.15425 L 91.810062 64.212844 L 92.540531 63.232375 L 93.271 62.220656 L 94.001469 61.169875 L 94.731937 60.083937 L 95.462406 58.958937 L 96.192875 57.802687 L 96.923344 56.607375 L 97.653812 55.373 L 98.384281 54.107375 L 99.11475 52.802687 L 99.845219 51.462844 L 100.575687 50.087844 L 101.306156 48.673781 L 102.036625 47.224562 L 102.767094 45.740187 L 103.497562 44.220656 L 104.228031 42.662062 L 104.9585 41.068312 L 105.688969 39.439406 L 106.419437 37.775344 L 107.149906 36.072219 L 107.880375 34.333937 L 108.610844 32.5605 L 109.341312 30.748 L 110.071781 28.900344 L 110.80225 27.017531 L 111.532719 25.099562 L 112.263187 23.142531 L 112.993656 21.150344 L 113.728031 19.123 L 114.4585 17.0605 L 115.188969 14.958937 L 115.919437 12.822219 "
     transform="matrix(1, 0, 0, -1, 232.354, 154.373)"
     id="path237" />
  <g
     clip-path="url(#clip-0)"
     id="g241">
    <path
       fill="none"
       stroke-width="1.19553"
       stroke-linecap="butt"
       stroke-linejoin="miter"
       stroke="#000000"
       stroke-opacity="1"
       stroke-miterlimit="10"
       d="m 115.91944,12.822219 0.42187,1.25 0.42188,1.261718 0.42187,1.273438 0.42188,1.289062 0.42187,1.296875 0.42188,1.3125 0.42187,1.320313 0.42188,1.335937 0.42187,1.347657 0.42188,1.359375 0.42187,1.371093 0.42188,1.382813 0.42187,1.394531 0.42188,1.40625 0.42187,1.417969 0.42188,1.433594 0.42187,1.441406 0.42188,1.457031 0.42187,1.46875 0.42188,1.480469 0.42187,1.488281 0.42188,1.503906 0.42187,1.515625 0.42188,1.53125 0.42187,1.539063 0.42188,1.550781 0.41797,1.566406 0.42187,1.574219 0.42188,1.589844 0.42187,1.601562 0.42188,1.609375 0.42187,1.625 0.42188,1.636719 0.42187,1.648438 0.42188,1.664062 0.42187,1.671875 0.42188,1.683594 0.42187,1.699219 0.42188,1.707031 0.42187,1.722656 0.42188,1.730469 0.42187,1.746094 0.42188,1.757812 0.42187,1.769531 0.42188,1.78125 0.42187,1.792969 0.42188,1.808594 0.42187,1.816406 0.42188,1.828125 0.42187,1.84375 0.42188,1.855469 0.42187,1.863281 0.42188,1.878906 0.42187,1.890625 0.42188,1.902344 0.42187,1.914059 0.42188,1.92579 0.42187,1.9414 0.42188,1.94922 0.42187,1.96094 0.42188,1.97656 0.42187,1.98828 0.42188,1.9961 0.42187,2.01171 0.42188,2.02344 0.42187,2.03516 0.42188,2.04687 0.42187,2.0586 0.42188,2.07422 0.42187,2.08203 0.42188,2.09375 0.42187,2.10937 0.42188,2.12109 0.42187,2.12891 0.42188,2.14453 0.42187,2.15625 0.42188,2.16797 0.42187,2.17969 0.42188,2.1914"
       transform="matrix(1,0,0,-1,232.354,154.373)"
       id="path239" />
  </g>
  <path
     fill="none"
     stroke-width="0.3985"
     stroke-linecap="butt"
     stroke-linejoin="miter"
     stroke="rgb(50%, 50%, 50%)"
     stroke-opacity="1"
     stroke-dasharray="2.98883 2.98883"
     stroke-miterlimit="10"
     d="M 72.450687 2.849562 L 72.450687 96.873 "
     transform="matrix(1, 0, 0, -1, 232.354, 154.373)"
     id="path243" />
  <path
     fill-rule="nonzero"
     fill="rgb(0%, 0%, 0%)"
     fill-opacity="1"
     stroke-width="0.3985"
     stroke-linecap="butt"
     stroke-linejoin="miter"
     stroke="rgb(0%, 0%, 0%)"
     stroke-opacity="1"
     stroke-miterlimit="10"
     d="M 30.771 12.822219 C 30.771 13.8105 29.970219 14.615187 28.978031 14.615187 C 27.98975 14.615187 27.185062 13.8105 27.185062 12.822219 C 27.185062 11.830031 27.98975 11.02925 28.978031 11.02925 C 29.970219 11.02925 30.771 11.830031 30.771 12.822219 Z M 30.771 12.822219 "
     transform="matrix(1, 0, 0, -1, 232.354, 154.373)"
     id="path245" />
  <path
     fill-rule="nonzero"
     fill="rgb(0%, 0%, 0%)"
     fill-opacity="1"
     stroke-width="0.3985"
     stroke-linecap="butt"
     stroke-linejoin="miter"
     stroke="rgb(0%, 0%, 0%)"
     stroke-opacity="1"
     stroke-miterlimit="10"
     d="M 117.712406 12.822219 C 117.712406 13.8105 116.907719 14.615187 115.919437 14.615187 C 114.92725 14.615187 114.126469 13.8105 114.126469 12.822219 C 114.126469 11.830031 114.92725 11.02925 115.919437 11.02925 C 116.907719 11.02925 117.712406 11.830031 117.712406 12.822219 Z M 117.712406 12.822219 "
     transform="matrix(1, 0, 0, -1, 232.354, 154.373)"
     id="path247" />
  <path
     fill-rule="nonzero"
     fill="rgb(0%, 0%, 0%)"
     fill-opacity="1"
     stroke-width="0.3985"
     stroke-linecap="butt"
     stroke-linejoin="miter"
     stroke="rgb(0%, 0%, 0%)"
     stroke-opacity="1"
     stroke-miterlimit="10"
     d="M 74.243656 76.927687 C 74.243656 77.915969 73.438969 78.720656 72.450687 78.720656 C 71.4585 78.720656 70.653812 77.915969 70.653812 76.927687 C 70.653812 75.9355 71.4585 75.134719 72.450687 75.134719 C 73.438969 75.134719 74.243656 75.9355 74.243656 76.927687 Z M 74.243656 76.927687 "
     transform="matrix(1, 0, 0, -1, 232.354, 154.373)"
     id="path249" />
  <g
     fill="#000000"
     fill-opacity="1"
     id="g253">
    <use
       xlink:href="#glyph-3-0"
       x="376.73199"
       y="138.032"
       id="use251" />
  </g>
  <g
     fill="#000000"
     fill-opacity="1"
     id="g257">
    <use
       xlink:href="#glyph-3-1"
       x="322.81201"
       y="59.612999"
       id="use255" />
  </g>
  <g
     fill="#000000"
     fill-opacity="1"
     id="g261">
    <use
       xlink:href="#glyph-4-0"
       x="289.09601"
       y="42.056999"
       id="use259" />
  </g>
  <g
     fill="#000000"
     fill-opacity="1"
     id="g265">
    <use
       xlink:href="#glyph-5-0"
       x="296.51599"
       y="42.056999"
       id="use263" />
  </g>
  <g
     fill="#000000"
     fill-opacity="1"
     id="g269">
    <use
       xlink:href="#glyph-7-1"
       x="306.24301"
       y="42.056999"
       id="use267" />
  </g>
  <g
     fill="#000000"
     fill-opacity="1"
     id="g273">
    <use
       xlink:href="#glyph-4-1"
       x="308.80301"
       y="42.056999"
       id="use271" />
  </g>
  <g
     fill="#000000"
     fill-opacity="1"
     id="g277">
    <use
       xlink:href="#glyph-5-1"
       x="314.25101"
       y="42.056999"
       id="use275" />
  </g>
  <g
     fill="#000000"
     fill-opacity="1"
     id="g281">
    <use
       xlink:href="#glyph-4-2"
       x="317.83499"
       y="42.056999"
       id="use279" />
  </g>
  <g
     fill="#000000"
     fill-opacity="1"
     id="g285">
    <use
       xlink:href="#glyph-5-2"
       x="323.05899"
       y="42.056999"
       id="use283" />
  </g>
  <g
     fill="#000000"
     fill-opacity="1"
     id="g289">
    <use
       xlink:href="#glyph-7-1"
       x="326.642"
       y="42.056999"
       id="use287" />
  </g>
  <path
     fill="none"
     stroke-width="0.79701"
     stroke-linecap="butt"
     stroke-linejoin="miter"
     stroke="rgb(0%, 0%, 0%)"
     stroke-opacity="1"
     stroke-miterlimit="10"
     d="M 185.671 69.451125 L 218.979594 69.451125 "
     transform="matrix(1, 0, 0, -1, 5.579, 154.373)"
     id="path291" />
  <path
     fill="none"
     stroke-width="0.6376"
     stroke-linecap="round"
     stroke-linejoin="round"
     stroke="rgb(0%, 0%, 0%)"
     stroke-opacity="1"
     stroke-miterlimit="10"
     d="M -1.555504 2.071867 C -1.422691 1.294524 -0.00081625 0.130461 0.389809 0.001555 C -0.00081625 -0.131258 -1.422691 -1.29532 -1.555504 -2.072664 "
     transform="matrix(1, 0, 0, -1, 224.55941, 84.92343)"
     id="path293" />
  <g
     fill="#000000"
     fill-opacity="1"
     id="g297">
    <use
       xlink:href="#glyph-4-2"
       x="177.21001"
       y="67.287003"
       id="use295" />
  </g>
  <g
     fill="#000000"
     fill-opacity="1"
     id="g311">
    <use
       xlink:href="#glyph-8-0"
       x="185.509"
       y="67.287003"
       id="use299" />
    <use
       xlink:href="#glyph-8-1"
       x="194.4754"
       y="67.287003"
       id="use301" />
    <use
       xlink:href="#glyph-8-2"
       x="203.4418"
       y="67.287003"
       id="use303" />
    <use
       xlink:href="#glyph-8-3"
       x="212.4082"
       y="67.287003"
       id="use305" />
    <use
       xlink:href="#glyph-8-4"
       x="221.3746"
       y="67.287003"
       id="use307" />
    <use
       xlink:href="#glyph-8-5"
       x="230.341"
       y="67.287003"
       id="use309" />
  </g>
  <g
     fill="#000000"
     fill-opacity="1"
     id="g317">
    <use
       xlink:href="#glyph-8-6"
       x="180.15601"
       y="78.246002"
       id="use313" />
    <use
       xlink:href="#glyph-8-7"
       x="189.12241"
       y="78.246002"
       id="use315" />
  </g>
  <g
     fill="#000000"
     fill-opacity="1"
     id="g321">
    <use
       xlink:href="#glyph-4-2"
       x="201.164"
       y="78.246002"
       id="use319" />
  </g>
  <g
     fill="#000000"
     fill-opacity="1"
     id="g329">
    <use
       xlink:href="#glyph-8-0"
       x="209.463"
       y="78.246002"
       id="use323" />
    <use
       xlink:href="#glyph-8-8"
       x="218.4294"
       y="78.246002"
       id="use325" />
    <use
       xlink:href="#glyph-8-9"
       x="227.3958"
       y="78.246002"
       id="use327" />
  </g>
</svg>
