<svg xmlns="http://www.w3.org/2000/svg" width="680" height="430" viewBox="0 0 680 430">
<rect width="100%" height="100%" fill="white"/>
<text x="18" y="26" font-size="17" font-weight="600">第10講 PART3 講義問題</text>
<text x="530" y="418" font-size="11">示意图（不按比例）</text><polyline points="145,315 505,315 325,375 145,315" fill="none" stroke="#111" stroke-width="2"/><line x1="325" y1="70" x2="145" y2="315" stroke="#111" stroke-width="2"/><line x1="325" y1="70" x2="505" y2="315" stroke="#111" stroke-width="2"/><line x1="325" y1="70" x2="325" y2="375" stroke="#111" stroke-width="2"/><line x1="325" y1="70" x2="325" y2="335" stroke="#111" stroke-width="2" stroke-dasharray="6 5"/><path d="M 325 323 L 337 323 L 337 335" fill="none" stroke="#111" stroke-width="1.3"/><text x="153" y="323" font-size="14">A</text><text x="513" y="323" font-size="14">B</text><text x="333" y="383" font-size="14">C</text><text x="333" y="63" font-size="14">P</text><text x="333" y="343" font-size="14">H</text><text x="210" y="170" font-size="13">4</text><text x="430" y="170" font-size="13">4</text><text x="322" y="205" font-size="13">4</text><text x="290" y="305" font-size="13">6</text><text x="405" y="357" font-size="13">6</text><text x="195" y="357" font-size="13">6</text></svg>